# xmcd CD database file
#
# Track frame offsets:
#	150
#	10334
#	22224
#	35135
#	49956
#	64295
#	77159
#	86767
#	103149
#	114976
#	130488
#	144355
#	157323
#	174148
#	186011
#	201247
#	215463
#	227907
#	238860
#	251073
#	261411
#	275672
#
# Disc length: 3873 seconds
#
# Revision: 1
# Processed by: cddbd v1.5.1PL2 Copyright (c) Steve Scherf et al.
# Submitted via: CDex 1.51
#
DISCID=550f1f16
DTITLE=Merle Haggard - For The Record (43 Legendary Hits) [CD1]
DYEAR=1999
DGENRE=Country
TTITLE0=Mama Tried
TTITLE1=Sing A Sad Song
TTITLE2=Swinging Doors
TTITLE3=I'm A Lonesome Fugitive
TTITLE4=Branded Man
TTITLE5=Sing Me Back Home
TTITLE6=The Legend Of Bonnie And Clyde
TTITLE7=Hungry Eyes
TTITLE8=Workin' Man Blues
TTITLE9=Silver Wings (Duet With Jewel)
TTITLE10=Okie From Muskogee
TTITLE11=The Fightin' Side Of Me
TTITLE12=Daddy Frank (The Guitar Man)
TTITLE13=Carolyn
TTITLE14=It's Not Love (But It's Not Bad)
TTITLE15=Everybody's Had The Blues
TTITLE16=If We Make It Through December
TTITLE17=Old Man From The Mountain
TTITLE18=Things Aren't Funny Anymore
TTITLE19=Movin' On (Duet With Brooks And Dunn)
TTITLE20=Always Wanting You
TTITLE21=It's All In The Movies
EXTD=YEAR: 1999
EXTT0=
EXTT1=
EXTT2=
EXTT3=
EXTT4=
EXTT5=
EXTT6=
EXTT7=
EXTT8=
EXTT9=
EXTT10=
EXTT11=
EXTT12=
EXTT13=
EXTT14=
EXTT15=
EXTT16=
EXTT17=
EXTT18=
EXTT19=
EXTT20=
EXTT21=
PLAYORDER=
